<svg preserveAspectRatio="none" width="100%" height="100%" overflow="visible" style="display: block;" viewBox="0 0 290.981 231.993" fill="none" xmlns="http://www.w3.org/2000/svg">
<path id="Vector" d="M243.643 206.652C233.722 215.361 221.068 221.794 205.601 225.874C190.134 229.954 170.839 231.993 147.639 231.993C98.8946 231.993 62.102 222.265 37.2612 202.73C12.4204 183.194 0 154.322 0 116.036C0 77.7496 12.4204 48.721 37.2612 29.264C62.102 9.80696 98.8946 0 147.639 0C188.728 0 221.615 6.98256 246.299 21.0261C271.062 35.0697 286.06 68.0995 289.341 93.0485L195.836 94.2253C196.93 84.1045 195.836 70.6886 177.01 59.5479C169.589 55.1544 160.528 52.9576 149.904 52.9576C132.172 52.9576 118.033 58.6849 107.331 70.0609C96.6292 81.5155 91.3173 96.8143 91.3173 116.114C91.3173 135.415 96.5511 150.713 107.097 161.462C117.642 172.21 132.328 177.624 151.232 177.624C165.371 177.624 177.167 175.035 186.541 169.857C195.914 164.679 201.695 157.617 203.726 148.674L168.418 164.129L167.715 103.091L290.981 100.972V226.109H225.052L243.487 206.574L243.643 206.652Z" fill="var(--fill-0, #FDC6EC)"/>
</svg>
